<svg width="434" height="53" viewBox="0 0 434 53" fill="none" xmlns="http://www.w3.org/2000/svg">
<path d="M1.33 51C0.91 51 0.7 50.86 0.7 50.16V49.81C0.7 49.18 0.98 48.97 1.54 48.83C3.78 48.41 5.39 47.08 5.39 45.33V5.71C5.39 3.96 3.78 2.63 1.54 2.21C0.98 2.07 0.7 1.86 0.7 1.23V0.879999C0.7 0.179999 0.91 0.0399969 1.33 0.0399969C4.2 0.0399969 6.3 0.389997 8.82 0.389997C11.34 0.389997 13.58 0.0399969 16.45 0.0399969C16.87 0.0399969 17.08 0.179999 17.08 0.879999V1.23C17.08 1.86 16.87 2.07 16.52 2.14C14.14 2.49 12.39 3.89 12.39 5.71V45.33C12.39 47.15 14.14 48.55 16.52 48.9C16.87 48.97 17.08 49.18 17.08 49.81V50.16C17.08 50.86 16.87 51 16.45 51C13.58 51 11.34 50.65 8.82 50.65C6.3 50.65 4.2 51 1.33 51ZM19.1034 51C18.6834 51 18.4734 50.86 18.4734 50.16V49.81C18.4734 49.18 18.7534 48.97 19.3134 48.83C20.8534 48.41 22.4634 47.08 22.4634 45.33V25.1C22.4634 23.35 21.5534 22.09 19.1734 21.46C18.8234 21.39 18.6834 21.11 18.6834 20.76V20.2C18.6834 19.85 18.8934 19.57 19.2434 19.5C22.3234 18.87 25.3334 16.84 26.8034 15.37C27.0834 15.09 27.4334 15.16 27.8534 15.3C28.3434 15.51 28.4834 15.79 28.4834 16.14V20.83C30.8634 16.98 34.2934 15.3 37.9334 15.3C44.6534 15.3 47.6634 19.99 47.6634 26.85V45.33C47.6634 47.15 49.4134 48.55 51.0934 48.9C51.4434 48.97 51.6534 49.18 51.6534 49.81V50.16C51.6534 50.86 51.4434 51 51.0234 51C48.8534 51 46.6134 50.65 44.4434 50.65C42.2734 50.65 40.1734 51 38.0034 51C37.5834 51 37.3734 50.86 37.3734 50.16V49.81C37.3734 49.18 37.6534 48.97 38.2134 48.83C39.7534 48.41 41.3634 47.08 41.3634 45.33V29.23C41.3634 22.44 39.0534 19.78 35.3434 19.78C32.8234 19.78 30.0234 21.25 28.7634 24.47V45.33C28.7634 47.15 30.5134 48.55 32.1934 48.9C32.5434 48.97 32.7534 49.18 32.7534 49.81V50.16C32.7534 50.86 32.5434 51 32.1234 51C29.9534 51 27.7134 50.65 25.5434 50.65C23.3734 50.65 21.2734 51 19.1034 51ZM67.3652 51C66.9452 51 66.7352 50.86 66.7352 50.16V49.81C66.7352 49.18 67.0152 48.97 67.5752 48.83C69.8152 48.41 71.4252 47.08 71.4252 45.33V5.71C71.4252 3.96 69.8152 2.63 67.5752 2.21C67.0152 2.07 66.7352 1.86 66.7352 1.23V0.879999C66.7352 0.179999 66.9452 0.0399969 67.3652 0.0399969C69.1152 0.0399969 72.1952 0.179999 76.8152 0.179999C82.5552 0.109996 84.3052 0.0399969 85.0752 0.0399969C93.6152 0.0399969 99.9852 5.08 99.9852 14.67C99.9852 24.05 93.1252 29.02 84.5852 29.02C82.1352 29.02 80.1052 28.67 78.4252 28.04V45.33C78.4252 47.15 80.1752 48.55 82.5552 48.9C82.9052 48.97 83.1152 49.18 83.1152 49.81V50.16C83.1152 50.86 82.9052 51 82.4852 51C79.6152 51 77.3752 50.65 74.8552 50.65C72.3352 50.65 70.2352 51 67.3652 51ZM78.4252 25.24C80.2452 26.01 81.9252 26.29 83.8852 26.29C88.8552 26.29 92.2852 22.58 92.2852 15.3C92.2852 7.04 88.8552 2.7 83.8852 2.7H82.2052C80.1752 2.7 78.4252 3.89 78.4252 5.71V25.24ZM101.682 51C101.262 51 101.052 50.86 101.052 50.16V49.81C101.052 49.18 101.332 48.97 101.892 48.83C103.432 48.41 105.042 47.08 105.042 45.33V25.1C105.042 23.35 104.132 22.09 101.752 21.46C101.402 21.39 101.262 21.11 101.262 20.76V20.2C101.262 19.85 101.472 19.57 101.822 19.5C104.902 18.87 107.912 16.84 109.382 15.37C109.662 15.09 110.012 15.16 110.432 15.3C110.922 15.51 111.062 15.79 111.062 16.14V21.04C113.372 17.68 116.872 15.3 119.532 15.3C123.102 15.3 124.852 17.54 124.852 20.55C124.852 22.79 123.732 24.12 121.702 24.12C118.132 24.12 118.832 20.69 115.472 20.69C113.652 20.69 112.252 22.02 111.342 24.47V45.33C111.342 47.15 113.092 48.55 114.772 48.9C115.122 48.97 115.332 49.18 115.332 49.81V50.16C115.332 50.86 115.122 51 114.702 51C112.532 51 110.292 50.65 108.122 50.65C105.952 50.65 103.852 51 101.682 51ZM126.564 51C126.144 51 125.934 50.86 125.934 50.16V49.81C125.934 49.18 126.214 48.97 126.774 48.83C128.314 48.41 129.924 47.08 129.924 45.33V25.8C129.924 24.05 129.014 22.79 126.634 22.16C126.284 22.09 126.144 21.81 126.144 21.46V20.9C126.144 20.55 126.354 20.34 126.704 20.2C128.874 19.5 132.514 17.4 134.544 15.37C134.824 15.09 135.174 15.16 135.594 15.3C136.084 15.51 136.224 15.79 136.224 16.14V45.33C136.224 47.15 137.974 48.55 139.654 48.9C140.004 48.97 140.214 49.18 140.214 49.81V50.16C140.214 50.86 140.004 51 139.584 51C137.414 51 135.174 50.65 133.004 50.65C130.834 50.65 128.734 51 126.564 51ZM128.594 5.5C128.594 2.56 130.274 0.599998 132.794 0.599998C135.314 0.599998 136.924 2.56 136.924 5.5C136.924 8.51 135.314 10.47 132.794 10.47C130.274 10.47 128.594 8.51 128.594 5.5ZM141.877 51C141.457 51 141.247 50.86 141.247 50.16V49.81C141.247 49.18 141.527 48.97 142.087 48.83C143.627 48.41 145.237 47.08 145.237 45.33V25.1C145.237 23.35 144.327 22.09 141.947 21.46C141.597 21.39 141.457 21.11 141.457 20.76V20.2C141.457 19.85 141.667 19.57 142.017 19.5C145.097 18.87 148.107 16.84 149.577 15.37C149.857 15.09 150.207 15.16 150.627 15.3C151.117 15.51 151.257 15.79 151.257 16.14V20.83C153.637 16.98 157.067 15.3 160.707 15.3C167.427 15.3 170.437 19.99 170.437 26.85V45.33C170.437 47.15 172.187 48.55 173.867 48.9C174.217 48.97 174.427 49.18 174.427 49.81V50.16C174.427 50.86 174.217 51 173.797 51C171.627 51 169.387 50.65 167.217 50.65C165.047 50.65 162.947 51 160.777 51C160.357 51 160.147 50.86 160.147 50.16V49.81C160.147 49.18 160.427 48.97 160.987 48.83C162.527 48.41 164.137 47.08 164.137 45.33V29.23C164.137 22.44 161.827 19.78 158.117 19.78C155.597 19.78 152.797 21.25 151.537 24.47V45.33C151.537 47.15 153.287 48.55 154.967 48.9C155.317 48.97 155.527 49.18 155.527 49.81V50.16C155.527 50.86 155.317 51 154.897 51C152.727 51 150.487 50.65 148.317 50.65C146.147 50.65 144.047 51 141.877 51ZM184.978 52.05C180.568 52.05 177.558 49.53 177.558 40.5V19.64C176.298 19.64 175.528 19.78 174.758 19.78C173.918 19.78 173.778 19.43 173.778 18.94V18.66C173.778 18.17 173.988 18.03 174.968 17.54C176.718 16.7 179.168 14.67 182.178 8.86C182.318 8.58 182.808 8.65 183.018 8.72L183.368 8.86C183.718 9 183.858 9.28 183.858 9.63V16.63C186.518 16.56 188.198 16.49 190.018 16.35C191.348 16.28 191.768 16.49 191.768 17.26V18.38C191.768 19.15 191.348 19.57 190.088 19.57C188.408 19.57 186.168 19.5 183.858 19.5V38.12C183.858 45.54 184.908 47.71 187.638 47.71C188.548 47.71 189.668 47.36 190.858 46.59C191.278 46.31 191.698 46.17 192.048 46.59L192.328 46.94C192.608 47.29 192.678 47.71 192.328 48.2C190.298 50.86 187.778 52.05 184.978 52.05ZM226.874 51C226.384 51 226.034 50.72 225.894 50.3L213.224 5.71C212.594 3.61 210.704 2.49 207.834 2.21C207.484 2.14 207.274 1.93 207.274 1.3V0.949998C207.274 0.249998 207.484 0.109996 207.904 0.109996C211.474 0.109996 213.924 0.459996 216.794 0.459996C219.944 0.459996 223.094 0.109996 226.314 0.109996C228.554 0.109996 232.964 0.459996 234.994 0.459996C238.004 0.459996 240.104 0.109996 244.724 0.109996C245.144 0.109996 245.354 0.249998 245.354 0.949998V1.3C245.354 1.93 245.074 2.14 244.514 2.21C240.664 2.7 239.054 3.89 239.614 6.06L248.154 38.19L256.694 6.48C257.394 3.96 256.064 2.63 252.074 2.14C251.514 2.07 251.234 1.86 251.234 1.23V0.879999C251.234 0.179999 251.444 0.0399969 251.864 0.0399969C255.084 0.0399969 257.534 0.389997 259.074 0.389997C260.754 0.389997 262.714 0.0399969 265.164 0.0399969C265.584 0.0399969 265.794 0.179999 265.794 0.879999V1.23C265.794 1.86 265.584 2.07 265.234 2.14C262.294 2.49 260.404 3.61 259.634 6.41L247.454 50.3C247.314 50.72 246.964 51 246.474 51H245.704C245.214 51 244.934 50.72 244.794 50.3L236.814 23.63L228.554 50.3C228.414 50.72 228.134 51 227.644 51H226.874ZM221.414 6.06L229.464 38.75L235.484 19.15L231.424 5.71C230.794 3.68 228.974 2.21 226.174 2.21C222.464 2.21 220.854 3.89 221.414 6.06ZM274.638 52.05C266.798 52.05 259.798 44.63 259.798 33.5C259.798 21.46 266.308 15.3 274.428 15.3C281.288 15.3 286.468 20.9 286.468 26.71C286.468 29.37 285.628 29.58 284.158 29.58H266.728C266.658 30.21 266.658 30.91 266.658 31.61C266.658 42.25 271.348 47.57 277.368 47.57C280.588 47.57 282.898 46.17 284.928 43.65C285.278 43.23 285.698 43.16 286.048 43.44L286.328 43.65C286.678 43.93 286.818 44.28 286.608 44.7C284.088 49.46 279.608 52.05 274.638 52.05ZM266.868 27.13H274.078C278.348 27.13 279.608 26.08 279.608 23.42C279.608 20.2 277.158 17.68 274.078 17.68C270.158 17.68 267.638 20.41 266.868 27.13ZM313.625 5.71C313.625 3.96 312.015 2.7 309.355 2.7H307.815C304.105 2.7 300.045 4.59 298.785 12.29C298.715 12.85 298.365 13.13 298.015 13.13H297.455C297.105 13.13 296.825 12.85 296.825 12.5L297.525 2.28C297.665 0.529999 297.945 0.0399969 300.535 0.0399969C306.765 0.109996 308.515 0.249998 314.255 0.249998H320.205C325.945 0.249998 327.695 0.109996 333.925 0.0399969C336.515 0.0399969 336.795 0.529999 336.935 2.28L337.635 12.5C337.635 12.85 337.355 13.13 337.005 13.13H336.445C336.095 13.13 335.745 12.85 335.675 12.29C334.415 4.59 330.355 2.7 326.645 2.7H325.105C322.375 2.7 320.625 3.89 320.625 5.71V45.33C320.625 47.15 322.375 48.55 324.755 48.9C325.105 48.97 325.315 49.18 325.315 49.81V50.16C325.315 50.86 325.105 51 324.685 51C321.815 51 319.575 50.65 317.055 50.65C314.535 50.65 312.435 51 309.565 51C309.145 51 308.935 50.86 308.935 50.16V49.81C308.935 49.18 309.215 48.97 309.775 48.83C312.015 48.41 313.625 47.08 313.625 45.33V5.71ZM331.574 51C331.154 51 330.944 50.86 330.944 50.16V49.81C330.944 49.18 331.224 48.97 331.784 48.83C333.324 48.41 334.934 47.08 334.934 45.33V25.1C334.934 23.35 334.024 22.09 331.644 21.46C331.294 21.39 331.154 21.11 331.154 20.76V20.2C331.154 19.85 331.364 19.57 331.714 19.5C334.794 18.87 337.804 16.84 339.274 15.37C339.554 15.09 339.904 15.16 340.324 15.3C340.814 15.51 340.954 15.79 340.954 16.14V21.04C343.264 17.68 346.764 15.3 349.424 15.3C352.994 15.3 354.744 17.54 354.744 20.55C354.744 22.79 353.624 24.12 351.594 24.12C348.024 24.12 348.724 20.69 345.364 20.69C343.544 20.69 342.144 22.02 341.234 24.47V45.33C341.234 47.15 342.984 48.55 344.664 48.9C345.014 48.97 345.224 49.18 345.224 49.81V50.16C345.224 50.86 345.014 51 344.594 51C342.424 51 340.184 50.65 338.014 50.65C335.844 50.65 333.744 51 331.574 51ZM369.547 52.05C362.827 52.05 359.817 47.36 359.817 40.5V21.67C359.817 19.85 358.067 18.45 356.387 18.1C356.037 18.03 355.827 17.82 355.827 17.19V16.84C355.827 16.14 356.037 16 356.457 16C357.997 16 359.537 16.35 361.847 16.35C362.897 16.35 364.017 16.21 365.417 16.21C367.097 16.21 366.117 17.68 366.117 23.07V38.12C366.117 44.91 368.427 47.57 372.137 47.57C374.657 47.57 377.457 46.1 378.717 42.88V21.67C378.717 19.85 376.967 18.45 375.287 18.1C374.937 18.03 374.727 17.82 374.727 17.19V16.84C374.727 16.14 374.937 16 375.357 16C376.897 16 378.437 16.35 380.747 16.35C381.797 16.35 382.917 16.21 384.317 16.21C385.997 16.21 385.017 17.68 385.017 23.07V41.83C385.017 44.7 385.927 45.96 388.307 46.59C388.657 46.66 388.797 46.94 388.797 47.29V47.85C388.797 48.2 388.587 48.48 388.237 48.55C385.857 48.83 382.287 50.09 380.817 51.49C380.467 51.77 380.187 51.84 379.627 51.63C379.137 51.42 378.997 51.14 378.997 50.79V46.52C376.617 50.37 373.187 52.05 369.547 52.05ZM401.63 52.05C397.01 52.05 392.81 50.65 391.48 49.53C390.71 48.83 390.57 48.41 390.57 47.22V39.31C390.57 38.96 390.85 38.68 391.2 38.68H391.76C392.11 38.68 392.46 38.96 392.6 39.52C394.07 45.05 398.55 49.67 402.96 49.67C405.97 49.67 407.79 47.36 407.79 44.42C407.79 36.65 391.06 33.64 391.06 24.19C391.06 18.73 394.77 15.3 401.28 15.3C405.13 15.3 408.77 16.28 410.03 17.33C410.8 18.03 410.94 18.45 410.94 19.64V25.8C410.94 26.15 410.66 26.43 410.31 26.43H409.75C409.4 26.43 409.05 26.15 408.91 25.59C407.51 20.48 403.94 17.68 400.72 17.68C398.27 17.68 396.52 19.15 396.52 21.74C396.52 28.18 412.83 31.12 412.83 42.04C412.83 48.06 409.54 52.05 401.63 52.05ZM425.808 52.05C421.398 52.05 418.388 49.53 418.388 40.5V19.64C417.128 19.64 416.358 19.78 415.588 19.78C414.748 19.78 414.608 19.43 414.608 18.94V18.66C414.608 18.17 414.818 18.03 415.798 17.54C417.548 16.7 419.998 14.67 423.008 8.86C423.148 8.58 423.638 8.65 423.848 8.72L424.198 8.86C424.548 9 424.688 9.28 424.688 9.63V16.63C427.348 16.56 429.028 16.49 430.848 16.35C432.178 16.28 432.598 16.49 432.598 17.26V18.38C432.598 19.15 432.178 19.57 430.918 19.57C429.238 19.57 426.998 19.5 424.688 19.5V38.12C424.688 45.54 425.738 47.71 428.468 47.71C429.378 47.71 430.498 47.36 431.688 46.59C432.108 46.31 432.528 46.17 432.878 46.59L433.158 46.94C433.438 47.29 433.508 47.71 433.158 48.2C431.128 50.86 428.608 52.05 425.808 52.05Z" fill="white"/>
</svg>
